<?xml version="1.0" encoding="iso-8859-1"?>
<!-- Generator: Adobe Illustrator 19.0.0, SVG Export Plug-In . SVG Version: 6.00 Build 0)  -->
<svg version="1.1" id="Capa_1" xmlns="http://www.w3.org/2000/svg" xmlns:xlink="http://www.w3.org/1999/xlink" x="0px" y="0px"
	 viewBox="0 0 512 512" style="enable-background:new 0 0 512 512;" xml:space="preserve">
<g>
	<g>
		<path d="M463.816,70.818l-22.641-22.64c-6.796-6.796-15.832-10.538-25.443-10.538c-9.611,0-18.647,3.742-25.443,10.538
			l-79.373,79.373c-3.831,3.831-3.831,10.043,0,13.873c3.831,3.831,10.043,3.831,13.873,0l42.078-42.079l45.78,45.78
			L168.967,388.805l-45.78-45.78l178.481-178.481c3.831-3.831,3.831-10.041,0-13.873s-10.043-3.831-13.873,0L102.379,336.089
			c-1.012,1.012-1.789,2.233-2.28,3.576l-34.248,93.899c-1.308,3.584-0.419,7.601,2.28,10.298c1.873,1.873,4.38,2.874,6.938,2.874
			c1.128,0,2.264-0.195,3.36-0.594l93.901-34.247c1.343-0.49,2.564-1.267,3.575-2.28l287.912-287.912
			C477.845,107.673,477.845,84.846,463.816,70.818z M91.504,420.489l21.754-59.646l37.891,37.891L91.504,420.489z M449.943,107.829
			l-23.421,23.421l-45.78-45.778l23.421-23.421c3.091-3.091,7.199-4.792,11.569-4.792c4.37,0,8.478,1.702,11.569,4.792l22.641,22.64
			c3.091,3.091,4.792,7.199,4.792,11.569S453.034,104.738,449.943,107.829z"/>
	</g>
</g>
<g>
	<g>
		<path d="M509.121,495.253L316.48,302.599c-3.831-3.831-10.043-3.831-13.874,0s-3.831,10.041,0,13.874L478.501,492.38h-59.002
			v-9.247c0-5.418-4.392-9.81-9.81-9.81c-5.418,0-9.81,4.392-9.81,9.81v9.247h-38.15v-9.247c0-5.418-4.392-9.81-9.81-9.81
			c-5.418,0-9.81,4.392-9.81,9.81v9.247h-38.15v-9.247c0-5.418-4.392-9.81-9.81-9.81c-5.418,0-9.81,4.392-9.81,9.81v9.247H246.19
			v-9.247c0-5.418-4.392-9.81-9.81-9.81c-5.418,0-9.81,4.392-9.81,9.81v9.247h-38.15v-9.247c0-5.418-4.392-9.81-9.81-9.81
			c-5.418,0-9.81,4.392-9.81,9.81v9.247h-38.149v-9.247c0-5.418-4.392-9.81-9.81-9.81s-9.81,4.392-9.81,9.81v9.247h-38.15v-9.247
			c0-5.418-4.392-9.81-9.81-9.81c-5.418,0-9.81,4.392-9.81,9.81v9.247H19.626V33.493l177.7,177.7c3.831,3.831,10.043,3.831,13.872,0
			c3.831-3.831,3.831-10.041,0-13.872L16.752,2.873c-2.804-2.806-7.025-3.644-10.69-2.127C2.396,2.265,0.006,5.842,0.006,9.81
			v492.38c0,5.418,4.392,9.81,9.81,9.81h492.367c3.967,0,7.544-2.39,9.063-6.056C512.765,502.279,511.925,498.059,509.121,495.253z"
			/>
	</g>
</g>
<g>
	<g>
		<path d="M158.473,250.031l-67.165-67.165c-2.807-2.807-7.025-3.644-10.69-2.127c-3.666,1.519-6.056,5.096-6.056,9.063v135.063
			c0,5.418,4.392,9.81,9.81,9.81c5.418,0,9.81-4.392,9.81-9.81V213.485l50.419,50.419c3.831,3.831,10.043,3.831,13.873,0
			C162.304,260.073,162.304,253.862,158.473,250.031z"/>
	</g>
</g>
<g>
	<g>
		<path d="M329.127,420.698l-65.373-65.373c-3.831-3.831-10.043-3.831-13.873,0c-3.831,3.831-3.831,10.041,0,13.873l48.627,48.627
			H179.111c-5.419,0-9.811,4.392-9.811,9.81c0,5.418,4.392,9.81,9.81,9.81h143.081c3.968,0,7.545-2.39,9.063-6.056
			C332.772,427.723,331.932,423.503,329.127,420.698z"/>
	</g>
</g>
<g>
</g>
<g>
</g>
<g>
</g>
<g>
</g>
<g>
</g>
<g>
</g>
<g>
</g>
<g>
</g>
<g>
</g>
<g>
</g>
<g>
</g>
<g>
</g>
<g>
</g>
<g>
</g>
<g>
</g>
</svg>
