<?xml version="1.0" encoding="iso-8859-1"?>
<!-- Generator: Adobe Illustrator 19.0.0, SVG Export Plug-In . SVG Version: 6.00 Build 0)  -->
<svg xmlns="http://www.w3.org/2000/svg" xmlns:xlink="http://www.w3.org/1999/xlink" version="1.1" id="Layer_1" x="0px" y="0px" viewBox="0 0 512 512" style="enable-background:new 0 0 512 512;" xml:space="preserve" width="512px" height="512px">
<g>
	<g>
		<g>
			<path d="M0,229.938v56.504h125.364v67.835H63.222v15h62.143h80.629h62.143v-15h-62.143v-67.835h125.363v-56.504V55.836H0V229.938     z M190.993,354.277h-50.629v-67.835h50.629V354.277z M15,70.836h301.356v159.102H15V70.836z M15,244.938h301.356v26.504H205.993     h-80.629H15V244.938z" fill="#FFFFFF"/>
			<polygon points="306.356,137.64 306.356,80.836 267.502,80.836 267.502,95.836 291.356,95.836 291.356,137.64    " fill="#FFFFFF"/>
			<rect x="291.36" y="154.3" width="15" height="16.66" fill="#FFFFFF"/>
			<polygon points="91.169,80.836 25,80.836 25,121.47 40,121.47 40,95.836 91.169,95.836    " fill="#FFFFFF"/>
			<rect x="108.26" y="80.84" width="17.15" height="15" fill="#FFFFFF"/>
			<rect x="103.564" y="100.48" transform="matrix(-0.7071 -0.7071 0.7071 -0.7071 87.288 325.5346)" width="15" height="88.419" fill="#FFFFFF"/>
			
				<rect x="212.794" y="100.471" transform="matrix(-0.7071 -0.7071 0.7071 -0.7071 273.7614 402.7558)" width="15" height="88.419" fill="#FFFFFF"/>
			<path d="M350.788,55.836v313.441H512V55.836H350.788z M497,354.277H365.788V70.836H497V354.277z" fill="#FFFFFF"/>
			<path d="M483.417,90.271H379.371v48.795h104.046V90.271z M468.417,124.066h-74.046v-18.795h74.046V124.066z" fill="#FFFFFF"/>
			<path d="M483.417,155.716H379.371v48.794h104.046V155.716z M468.417,189.51h-74.046v-18.794h74.046V189.51z" fill="#FFFFFF"/>
			<path d="M431.394,242.616c-24.396,0-44.244,19.849-44.244,44.245s19.848,44.244,44.244,44.244s44.245-19.848,44.245-44.244     S455.79,242.616,431.394,242.616z M431.394,316.105c-16.125,0-29.244-13.119-29.244-29.244c0-16.126,13.119-29.245,29.244-29.245     c16.126,0,29.245,13.119,29.245,29.245C460.639,302.986,447.52,316.105,431.394,316.105z" fill="#FFFFFF"/>
			<path d="M0,455.447h331.356v-47.352H0V455.447z M15,423.095h301.356v17.352H15V423.095z" fill="#FFFFFF"/>
			<path d="M431.394,382.747c-30.964,0-56.155,25.191-56.155,56.155v17.262H487.55v-17.262c0-11.955-3.707-23.369-10.722-33.01     C466.282,391.399,449.297,382.747,431.394,382.747z M472.551,441.164h-0.001h-82.311v-2.262     c0-20.131,14.533-36.921,33.655-40.458v21.011h15v-21.007c10.256,1.916,19.567,7.697,25.806,16.27     c5.136,7.059,7.851,15.421,7.851,24.184V441.164z" fill="#FFFFFF"/>
		</g>
	</g>
</g>
<g>
</g>
<g>
</g>
<g>
</g>
<g>
</g>
<g>
</g>
<g>
</g>
<g>
</g>
<g>
</g>
<g>
</g>
<g>
</g>
<g>
</g>
<g>
</g>
<g>
</g>
<g>
</g>
<g>
</g>
</svg>
